<svg width="28" height="22" viewBox="0 0 28 22" fill="none" xmlns="http://www.w3.org/2000/svg">
<path d="M25.6667 5.6H25.2V2.33333C25.1985 1.04533 24.1547 0.00151667 22.8667 0H5.13333C3.84533 0.00151667 2.80152 1.04533 2.8 2.33333V5.6H2.33333C1.04533 5.60152 0.00151667 6.64533 0 7.93333V15.4C0.00151667 16.688 1.04533 17.7318 2.33333 17.7333H2.8V21C2.8 21.2577 3.00895 21.4667 3.26667 21.4667H4.2C4.39466 21.4668 4.56896 21.3461 4.63727 21.1638L5.9234 17.7333H22.0766L23.3627 21.1638C23.431 21.3461 23.6053 21.4668 23.8 21.4667H24.7333C24.9911 21.4667 25.2 21.2577 25.2 21V17.7333H25.6667C26.9547 17.7318 27.9985 16.688 28 15.4V7.93333C27.9985 6.64533 26.9547 5.60152 25.6667 5.6ZM3.73333 2.33333C3.73333 1.56012 4.36013 0.933333 5.13333 0.933333H22.8667C23.6399 0.933333 24.2667 1.56012 24.2667 2.33333V5.6H22.8667C22.609 5.6 22.4 5.80895 22.4 6.06667V11.2H5.6V6.06667C5.6 5.80895 5.39105 5.6 5.13333 5.6H3.73333V2.33333ZM0.933333 7.93333C0.933333 7.16012 1.56012 6.53333 2.33333 6.53333H4.66667V11.2H0.933333V7.93333ZM3.8766 20.5333H3.73333V17.7333H4.9266L3.8766 20.5333ZM24.2667 20.5333H24.1234L23.0734 17.7333H24.2667V20.5333ZM27.0667 15.4C27.0667 16.1732 26.4399 16.8 25.6667 16.8H2.33333C1.56012 16.8 0.933333 16.1732 0.933333 15.4V12.1333H27.0667V15.4ZM27.0667 11.2H23.3333V6.53333H25.6667C26.4399 6.53333 27.0667 7.16012 27.0667 7.93333V11.2Z" fill="#909090"/>
</svg>
