<svg width="24" height="24" viewBox="0 0 24 24" fill="none" xmlns="http://www.w3.org/2000/svg">
<path fill-rule="evenodd" clip-rule="evenodd" d="M2.0319 2L0.514922 3.32082L4.87503 7.11712C4.46884 7.41021 4.06687 7.72498 3.66932 8.05971C2.77984 8.80865 1.97514 9.60822 1.26676 10.4081C0.839298 10.8908 0.535806 11.2705 0.36964 11.4967L0 11.9999L0.36964 12.5032C0.535806 12.7294 0.839298 13.1091 1.26676 13.5918C1.97514 14.3917 2.77984 15.1912 3.66932 15.9402C6.27655 18.1355 9.0742 19.4716 12 19.4716C13.8459 19.4716 15.6409 18.9397 17.3693 17.9957L21.9682 22L23.4852 20.6792L2.0319 2ZM15.8022 16.6313L14.1797 15.2186C13.5408 15.5473 12.7957 15.7359 11.9999 15.7359C9.63022 15.7359 7.70923 14.0633 7.70923 12C7.70923 11.3072 7.92586 10.6584 8.30337 10.1021L6.40037 8.44521C5.98481 8.737 5.57124 9.05677 5.16068 9.40247C4.35167 10.0837 3.61427 10.8164 2.96569 11.5487C2.82561 11.7069 2.69617 11.8578 2.57783 11.9999C2.69617 12.1421 2.82561 12.293 2.96569 12.4512C3.61427 13.1835 4.35167 13.9162 5.16068 14.5974C7.40625 16.4882 9.74191 17.6037 12 17.6037C13.253 17.6037 14.53 17.2602 15.8022 16.6313ZM9.92727 11.5161C9.87985 11.6704 9.85456 11.8327 9.85456 12C9.85456 13.0317 10.8151 13.868 11.9999 13.868C12.1921 13.868 12.3785 13.8459 12.5558 13.8046L9.92727 11.5161ZM20.6866 15.634L19.1696 14.3132C19.8498 13.7145 20.4751 13.0827 21.0343 12.4513C21.1744 12.2931 21.3038 12.1422 21.4222 12C21.3038 11.8579 21.1744 11.707 21.0343 11.5488C20.3857 10.8165 19.6483 10.0837 18.8393 9.40256C16.5938 7.51178 14.2581 6.39629 12 6.39629C11.4398 6.39629 10.8748 6.46496 10.3075 6.5971L8.61059 5.1196C9.71806 4.73512 10.8491 4.52837 12 4.52837C14.9258 4.52837 17.7234 5.86451 20.3307 8.05981C21.2202 8.80875 22.0249 9.60832 22.7332 10.4082C23.1607 10.8909 23.4642 11.2706 23.6304 11.4968L24 12L23.6304 12.5033C23.4642 12.7295 23.1607 13.1092 22.7332 13.5919C22.1206 14.2837 21.4359 14.9753 20.6866 15.634Z" fill="#C5C5C5"/>
</svg>
