<svg width="16" height="20" viewBox="0 0 16 20" fill="none" xmlns="http://www.w3.org/2000/svg">
<path d="M1.88184 0.75H14.1846C14.8151 0.75 15.2497 1.23309 15.25 1.69727V18.8643C15.2499 19.1033 15.182 19.1883 15.1631 19.208C15.1413 19.2307 15.1059 19.2499 15.0469 19.25C14.9835 19.25 14.8609 19.2252 14.666 19.0684H14.665L9.17871 14.6611H9.17969C8.85464 14.3995 8.43635 14.2803 8.04102 14.2803C7.64625 14.2804 7.2273 14.3993 6.90234 14.6611L1.40039 19.0674L1.39844 19.0693C1.21691 19.2156 1.07317 19.25 0.99707 19.25L0.942383 19.2441C0.893666 19.2329 0.859839 19.2072 0.84082 19.1816C0.793772 19.1179 0.75008 19.0187 0.75 18.8643V1.69727C0.750344 1.26642 1.21496 0.75 1.88184 0.75Z" stroke="#999999" stroke-width="1.5"/>
</svg>
