<svg width="20" height="20" viewBox="0 0 20 20" fill="none" xmlns="http://www.w3.org/2000/svg">
<path d="M19.9824 7.25294C19.9401 7.12335 19.8281 7.02884 19.6931 7.00915L13.217 6.06798L10.3209 0.19976C10.2607 0.0773265 10.1361 0 10.0001 0C9.86406 0 9.73912 0.0773265 9.67934 0.19976L6.78282 6.06834L0.306722 7.00951C0.171758 7.02919 0.0600646 7.12335 0.0174634 7.2533C-0.0244218 7.38253 0.0103036 7.52502 0.108036 7.61988L4.79452 12.1879L3.68797 18.6382C3.66505 18.7724 3.72019 18.9081 3.83009 18.9883C3.94071 19.0692 4.08713 19.0796 4.20706 19.0155L10.0001 15.9704L15.7924 19.0155C15.8447 19.0431 15.9023 19.0567 15.9593 19.0567C16.0334 19.0567 16.1071 19.0338 16.1698 18.9883C16.28 18.9081 16.3351 18.7724 16.3119 18.6382L15.2057 12.1882L19.8922 7.61988C19.9895 7.5243 20.0246 7.38218 19.9824 7.25294Z" fill="white"/>
</svg>
